<?xml version="1.0" encoding="utf-8"?>
<!-- Generator: Adobe Illustrator 22.0.1, SVG Export Plug-In . SVG Version: 6.00 Build 0)  -->
<svg version="1.1" id="Camada_1" xmlns="http://www.w3.org/2000/svg" xmlns:xlink="http://www.w3.org/1999/xlink" x="0px" y="0px"
	 viewBox="0 0 50 50" style="enable-background:new 0 0 50 50;" xml:space="preserve">
<style type="text/css">
	.st0{fill:#78BAE6;}
	.st1{fill:#5E99BC;}
</style>
<g>
	<path class="st0" d="M24.9,0.1C11.2,0.1,0,11.2,0,25c0,13.8,11.2,24.9,24.9,24.9c13.8,0,24.9-11.2,24.9-24.9
		C49.9,11.2,38.7,0.1,24.9,0.1z M25.7,13.8c0.6-2.7,2.9-4.5,5.2-4c2.3,0.5,3.7,3,3.2,5.7c-0.6,2.7-2.9,4.5-5.2,4
		C26.6,19,25.1,16.4,25.7,13.8z M19,9.8c2.3-0.5,4.6,1.3,5.2,4c0.6,2.7-0.9,5.2-3.2,5.7c-2.3,0.5-4.6-1.3-5.2-4
		C15.3,12.8,16.7,10.2,19,9.8z M8.4,23.5c-1.1-2.5-0.3-5.3,1.9-6.3c2.2-0.9,4.8,0.3,5.9,2.8c1.1,2.5,0.3,5.3-1.9,6.3
		C12.1,27.3,9.5,26,8.4,23.5z M32.3,40.3c-2.7,0-6.3-1.8-7.4-1.8c-1.1,0-4.7,1.8-7.4,1.8c-3.2,0-5.7-2.6-5.7-5.7
		c0-2.6,1.8-4.8,4.2-5.5c1.1-0.7,2.6-1.9,3.4-3.8c1.3-3.2,3.7-3.8,5.6-3.8c1.9,0,4.3,0.6,5.6,3.8c0.8,1.9,2.3,3.2,3.4,3.8
		c2.4,0.7,4.2,2.9,4.2,5.5C38,37.8,35.5,40.3,32.3,40.3z M41.5,23.5c-1.1,2.5-3.7,3.8-5.9,2.8c-2.2-0.9-3-3.7-1.9-6.3
		c1.1-2.5,3.7-3.8,5.9-2.8C41.7,18.2,42.6,21,41.5,23.5z"/>
	<path class="st1" d="M49.9,25c0-6.8-2.8-13-7.2-17.5l-8.9,8.9c-0.6,1.5-1.7,2.6-3.1,3.1L28,22.1c1,0.6,1.9,1.5,2.5,3.1
		c0.8,1.9,2.3,3.2,3.4,3.8c2.4,0.7,4.2,2.9,4.2,5.5c0,3.2-2.6,5.7-5.7,5.7c-2.7,0-6.3-1.8-7.4-1.8c-1.1,0-4.7,1.8-7.4,1.8
		c-2.1,0-3.9-1.1-4.9-2.8l-5.2,5.2c4.5,4.5,10.7,7.2,17.5,7.2C38.7,49.9,49.9,38.8,49.9,25z M35.6,26.3c-2.2-0.9-3-3.7-1.9-6.3
		c1.1-2.5,3.7-3.8,5.9-2.8c2.2,0.9,3,3.7,1.9,6.3C40.4,26,37.7,27.3,35.6,26.3z"/>
</g>
</svg>
