<?xml version="1.0" encoding="utf-8"?>
<!-- Generator: Adobe Illustrator 22.0.1, SVG Export Plug-In . SVG Version: 6.00 Build 0)  -->
<svg version="1.1" id="Camada_1" xmlns="http://www.w3.org/2000/svg" xmlns:xlink="http://www.w3.org/1999/xlink" x="0px" y="0px"
	 viewBox="0 0 50 50" style="enable-background:new 0 0 50 50;" xml:space="preserve">
<style type="text/css">
	.st0{fill:#78BAE6;}
	.st1{fill:#5E99BC;}
</style>
<g>
	<polygon class="st0" points="27.2,25.6 26.5,25.6 22.7,25.6 22.7,29.4 18.8,29.4 18.8,33.3 18.8,34 22.7,34 22.7,37.8 27.2,37.8 
		27.2,34 31,34 31,29.4 27.2,29.4 	"/>
	<path class="st0" d="M24.9,0.1C11.2,0.1,0.1,11.3,0.1,25c0,13.7,11.1,24.9,24.9,24.9c13.7,0,24.9-11.1,24.9-24.9
		C49.8,11.3,38.7,0.1,24.9,0.1z M25.8,12.8c0.6-2.9,3.1-4.9,5.6-4.3c2.5,0.5,4,3.3,3.4,6.2c-0.6,2.9-3.1,4.9-5.6,4.3
		C26.7,18.5,25.2,15.7,25.8,12.8z M18.5,8.5c2.5-0.5,5,1.4,5.6,4.3c0.6,2.9-0.9,5.7-3.4,6.2c-2.5,0.5-5-1.4-5.6-4.3
		C14.5,11.8,16,9,18.5,8.5z M7,23.3c-1.2-2.7-0.3-5.8,2.1-6.8c2.3-1,5.2,0.3,6.4,3.1c1.2,2.7,0.3,5.8-2.1,6.8
		C11.1,27.4,8.2,26.1,7,23.3z M32.9,41.6c-2.9,0-6.8-1.9-8-1.9c-1.1,0-5.1,1.9-8,1.9c-0.2,0-0.4,0-0.7,0c0,0-0.1,0-0.1,0
		c-0.2,0-0.3,0-0.5-0.1c0,0-0.1,0-0.1,0c-0.2,0-0.3-0.1-0.5-0.1c0,0,0,0-0.1,0c-0.2-0.1-0.4-0.1-0.5-0.2c0,0,0,0,0,0
		c-2.2-1-3.7-3.1-3.7-5.7c0-2.8,1.9-5.2,4.5-6c1.2-0.7,2.8-2.1,3.6-4.2c1.4-3.5,4-4.1,6-4.1c1.4,0,3.1,0.3,4.5,1.7
		c0.1,0.1,0.1,0.2,0.2,0.2c0,0,0.1,0.1,0.1,0.1c0.1,0.1,0.2,0.2,0.3,0.4c0,0,0.1,0.1,0.1,0.1c0.1,0.1,0.2,0.2,0.2,0.4
		c0,0,0,0.1,0.1,0.1c0.1,0.2,0.2,0.3,0.3,0.5c0,0,0,0.1,0.1,0.1c0.1,0.2,0.2,0.4,0.2,0.6c0.8,2.1,2.4,3.4,3.6,4.2
		c2.6,0.7,4.5,3.1,4.5,6C39.1,38.8,36.4,41.6,32.9,41.6z M36.5,26.4c-2.3-1-3.3-4.1-2.1-6.8c1.2-2.7,4.1-4.1,6.4-3.1
		c2.3,1,3.3,4.1,2.1,6.8C41.7,26.1,38.8,27.4,36.5,26.4z"/>
	<path class="st1" d="M42.8,7.6L28.6,22.2c0.3,0.2,0.5,0.4,0.8,0.7c0.1,0.1,0.1,0.2,0.2,0.2c0,0,0.1,0.1,0.1,0.1
		c0.1,0.1,0.2,0.2,0.3,0.4c0,0,0.1,0.1,0.1,0.1c0.1,0.1,0.2,0.2,0.2,0.4c0,0,0,0.1,0.1,0.1c0.1,0.2,0.2,0.3,0.3,0.5
		c0,0,0,0.1,0.1,0.1c0.1,0.2,0.2,0.4,0.2,0.6c0.8,2.1,2.4,3.4,3.6,4.2c2.6,0.7,4.5,3.1,4.5,6c0,3.4-2.8,6.2-6.2,6.2
		c-2.9,0-6.8-1.9-8-1.9c-1.1,0-5.1,1.9-8,1.9c-0.2,0-0.4,0-0.7,0c0,0-0.1,0-0.1,0c-0.2,0-0.3,0-0.5-0.1c0,0-0.1,0-0.1,0
		c-0.2,0-0.3-0.1-0.5-0.1c0,0,0,0-0.1,0c-0.2-0.1-0.4-0.1-0.5-0.2c0,0,0,0,0,0c-0.9-0.4-1.7-1-2.4-1.8l-3.9,4
		c4.4,4.1,10.4,6.6,16.9,6.6c13.7,0,24.9-11.1,24.9-24.9C49.9,18.2,47.2,12,42.8,7.6z M36.5,26.4c-2.3-1-3.3-4.1-2.1-6.8
		c1.2-2.7,4.1-4.1,6.4-3.1c2.3,1,3.3,4.1,2.1,6.8C41.7,26.1,38.8,27.4,36.5,26.4z"/>
</g>
</svg>
