<?xml version="1.0" encoding="utf-8"?>
<!-- Generator: Adobe Illustrator 22.0.1, SVG Export Plug-In . SVG Version: 6.00 Build 0)  -->
<svg version="1.1" id="Camada_1" xmlns="http://www.w3.org/2000/svg" xmlns:xlink="http://www.w3.org/1999/xlink" x="0px" y="0px"
	 viewBox="0 0 200 70.3" style="enable-background:new 0 0 200 70.3;" xml:space="preserve">
<style type="text/css">
	.st0{fill:#472E20;}
	.st1{fill:#FFFFFF;}
</style>
<g>
	<g>
		<path class="st0" d="M8.3,37.4c6.2,3.5,13.1,3,15.4-1.1s-0.9-10.2-7.1-13.7s-13.1-3-15.4,1.1S2.1,33.9,8.3,37.4z"/>
		<path class="st0" d="M0.8,48.9c-0.4,3.8,4.1,7.4,9.9,7.9s10.9-2.1,11.2-5.9c0.4-3.8-4.1-7.4-9.9-7.9C6.2,42.4,1.1,45,0.8,48.9z"/>
		<path class="st0" d="M33.4,26.6c4.1-2.3,4.6-9.2,1.1-15.4s-9.6-9.4-13.7-7.1s-4.6,9.2-1.1,15.4S29.3,28.9,33.4,26.6z"/>
		<path class="st0" d="M47.9,24.8c3.8-0.4,6.5-5.4,5.9-11.2c-0.5-5.8-4.1-10.3-7.9-9.9c-3.8,0.4-6.5,5.4-5.9,11.2
			C40.5,20.8,44.1,25.2,47.9,24.8z"/>
		<path class="st0" d="M66.5,52.4c5.8-5.8,5.2-12.4,0.5-17.1C57.9,23.9,41.7,25,31.9,34.8c-8.7,8.7-10.5,22.4-2.9,31.8h23.2
			c3.1-3.4,3.1-4.3,5.2-6.3C59.9,57.8,60.7,58.3,66.5,52.4z"/>
	</g>
	<g>
		<path class="st0" d="M176.3,36.3c2.3,4.1,9.2,4.6,15.4,1.1s9.4-9.6,7.1-13.7c-2.3-4.1-9.2-4.6-15.4-1.1
			C177.2,26.1,174.1,32.2,176.3,36.3z"/>
		<path class="st0" d="M188,42.9c-5.8,0.5-10.3,4.1-9.9,7.9c0.4,3.8,5.4,6.5,11.2,5.9c5.8-0.5,10.3-4.1,9.9-7.9
			C198.9,45,193.8,42.4,188,42.9z"/>
		<path class="st0" d="M166.6,26.6c4.1,2.3,10.2-0.9,13.7-7.1s3-13.1-1.1-15.4S169,5,165.5,11.2C162.1,17.4,162.5,24.3,166.6,26.6z"
			/>
		<path class="st0" d="M152.1,24.8c3.8,0.4,7.4-4.1,7.9-9.9S157.9,4,154.1,3.7c-3.8-0.4-7.4,4.1-7.9,9.9
			C145.6,19.5,148.3,24.5,152.1,24.8z"/>
		<path class="st0" d="M168.1,34.8c-9.8-9.8-26-10.9-35.2,0.5c-4.7,4.7-5.3,11.3,0.5,17.1s6.6,5.3,9.1,7.9c2,2,2.1,3,5.2,6.3H171
			C178.6,57.3,176.8,43.5,168.1,34.8z"/>
	</g>
	<g>
		<path class="st1" d="M38,49.1h-3.9v5.4h3.4V57h-3.4v9.6h-4.4V46.5H38V49.1z"/>
		<path class="st1" d="M50.6,66.6h-4.4l-0.7-5.4h-2l-0.8,5.4h-4.4l3.3-20.1h5.6L50.6,66.6z M45.1,58.5l-0.6-6l-0.6,6H45.1z"/>
		<path class="st1" d="M51.3,66.6V46.5h5.5c1.2,0,2.3,0.3,3.2,1c0.9,0.6,1.4,1.6,1.4,3v12.2c0,1.3-0.4,2.2-1.3,2.9
			c-0.9,0.7-2,1-3.3,1H51.3z M56.9,63V50.2c0-0.7-0.4-1.1-1.3-1.1V64C56.5,64.1,56.9,63.7,56.9,63z"/>
		<path class="st1" d="M74.2,66.6h-4.4l-0.7-5.4h-2l-0.8,5.4H62l3.3-20.1h5.6L74.2,66.6z M68.7,58.5l-0.6-6l-0.6,6H68.7z"/>
		<path class="st1" d="M95.4,66.6h-3.9V55.4l-2.3,11.3h-3l-2.6-11.3v11.3H80V46.5h5.7l2,10.4l1.8-10.4h5.9V66.6z"/>
		<path class="st1" d="M108.3,66.6h-4.4l-0.7-5.4h-2l-0.8,5.4H96l3.3-20.1h5.6L108.3,66.6z M102.8,58.5l-0.6-6l-0.6,6H102.8z"/>
		<path class="st1" d="M108.9,66.6V46.5h5.5c1.2,0,2.3,0.3,3.2,1c0.9,0.6,1.4,1.6,1.4,3v12.2c0,1.3-0.4,2.2-1.3,2.9s-2,1-3.3,1
			H108.9z M114.6,63V50.2c0-0.7-0.4-1.1-1.3-1.1V64C114.2,64.1,114.6,63.7,114.6,63z"/>
		<path class="st1" d="M130.8,66.7h-4.4c-0.5-0.6-0.7-2.2-0.7-4.8l0,0v-1.2c0-1.7,0-2.5,0-2.6c0-0.7-0.5-1-1.4-1v9.6H120V46.5h5.5
			c1.2,0,2.3,0.3,3.2,0.9c0.9,0.6,1.4,1.5,1.4,2.7v2.4c0,1.6-0.9,2.6-2.7,3.2c1.8,0.4,2.7,1.5,2.7,3.3l-0.1,2.2
			C130,64.4,130.3,66.2,130.8,66.7z M125.8,53.5v-3.3c0-0.7-0.5-1.1-1.4-1.1v5.4C125.3,54.6,125.8,54.2,125.8,53.5z"/>
		<path class="st1" d="M135.8,66.6h-4.4V46.5h4.4V66.6z"/>
		<path class="st1" d="M147.9,66.6h-4.5l-3-10.7v10.7h-3.7V46.5h5l2.5,9.2v-9.2h3.7V66.6z"/>
		<path class="st1" d="M158.9,66.6h-4.4V57h-1.2v9.6h-4.4V46.5h4.4v8h1.2v-8h4.4V66.6z"/>
		<path class="st1" d="M171.7,66.6h-4.4l-0.7-5.4h-2l-0.8,5.4h-4.4l3.3-20.1h5.6L171.7,66.6z M166.2,58.5l-0.6-6l-0.6,6H166.2z"/>
	</g>
	<g>
		<path class="st1" d="M90.2,35.4v7.4h-4.3V22.7h4.6c1.8,0,3.2,0.2,4.1,0.7s1.3,1.4,1.3,2.9v5.6c0,1.3-0.4,2.2-1.1,2.8
			C94.2,35.2,92.6,35.5,90.2,35.4z M91.7,31.5v-4.8c0-0.7-0.5-1.1-1.5-1.1v6.9C91.2,32.6,91.7,32.2,91.7,31.5z"/>
		<path class="st1" d="M105.4,42.8h-8.6V22.7h8.6v2.6h-4.2v5.4h3.8v2.4h-3.8v7.1h4.2V42.8z"/>
		<path class="st1" d="M115.4,25.4h-2.5v17.5h-4.4V25.4H106v-2.6h9.3L115.4,25.4L115.4,25.4z"/>
	</g>
</g>
</svg>
