<?xml version="1.0" encoding="utf-8"?>
<!-- Generator: Adobe Illustrator 22.0.1, SVG Export Plug-In . SVG Version: 6.00 Build 0)  -->
<svg version="1.1" id="Camada_1" xmlns="http://www.w3.org/2000/svg" xmlns:xlink="http://www.w3.org/1999/xlink" x="0px" y="0px"
	 viewBox="0 0 200 70.3" style="enable-background:new 0 0 200 70.3;" xml:space="preserve">
<style type="text/css">
	.st0{fill:#FFFFFF;}
	.st1{fill:#79CAFC;}
</style>
<g>
	<g>
		<path class="st0" d="M10.2,38.3c6.1,3.4,12.9,2.9,15.1-1.1c2.2-4-0.9-10-7-13.4c-6.1-3.4-12.9-2.9-15.1,1.1
			C1,28.8,4.1,34.9,10.2,38.3z"/>
		<path class="st0" d="M2.8,49.5c-0.4,3.8,4,7.2,9.7,7.8c5.7,0.5,10.6-2.1,11-5.8c0.4-3.8-4-7.2-9.7-7.8C8.1,43.2,3.2,45.8,2.8,49.5
			z"/>
		<path class="st0" d="M34.8,27.7c4-2.2,4.5-9,1.1-15.1c-3.4-6.1-9.4-9.2-13.4-7c-4,2.2-4.5,9-1.1,15.1
			C24.8,26.8,30.8,29.9,34.8,27.7z"/>
		<path class="st0" d="M49.1,25.9c3.8-0.4,6.4-5.3,5.8-11c-0.5-5.7-4-10.1-7.8-9.7c-3.8,0.4-6.4,5.3-5.8,11
			C41.8,21.9,45.3,26.3,49.1,25.9z"/>
		<path class="st0" d="M67.3,53c5.7-5.7,5.1-12.2,0.5-16.8c-9-11.2-24.9-10.1-34.5-0.5c-8.5,8.5-10.3,22-2.8,31.2h22.7
			c3-3.3,3.1-4.2,5.1-6.2C60.9,58.3,61.6,58.8,67.3,53z"/>
	</g>
	<g>
		<path class="st0" d="M175.1,37.2c2.2,4,9,4.5,15.1,1.1c6.1-3.4,9.2-9.4,7-13.4c-2.2-4-9-4.5-15.1-1.1
			C176,27.2,172.9,33.2,175.1,37.2z"/>
		<path class="st0" d="M186.6,43.7c-5.7,0.5-10.1,4-9.7,7.8c0.4,3.8,5.3,6.4,11,5.8c5.7-0.5,10.1-4,9.7-7.8
			C197.2,45.8,192.3,43.2,186.6,43.7z"/>
		<path class="st0" d="M165.6,27.7c4,2.2,10-0.9,13.4-7c3.4-6.1,2.9-12.9-1.1-15.1c-4-2.2-10,0.9-13.4,7
			C161.1,18.7,161.6,25.4,165.6,27.7z"/>
		<path class="st0" d="M151.3,25.9c3.8,0.4,7.2-4,7.8-9.7c0.5-5.7-2.1-10.6-5.8-11c-3.8-0.4-7.2,4-7.8,9.7
			C145,20.7,147.6,25.6,151.3,25.9z"/>
		<path class="st0" d="M167,35.8c-9.6-9.6-25.5-10.7-34.5,0.5c-4.6,4.6-5.2,11.1,0.5,16.8c5.7,5.7,6.5,5.2,9,7.7
			c2,2,2.1,2.9,5.1,6.2h22.7C177.4,57.8,175.6,44.3,167,35.8z"/>
	</g>
	<g>
		<path class="st1" d="M39.3,49.8h-3.8v5.3h3.4v2.4h-3.4V67h-4.3V47.3h8.1V49.8z"/>
		<path class="st1" d="M51.7,67h-4.3l-0.7-5.3h-1.9L44.1,67h-4.3L43,47.3h5.5L51.7,67z M46.4,58.9l-0.6-5.9l-0.6,5.9H46.4z"/>
		<path class="st1" d="M52.4,67V47.3h5.4c1.2,0,2.2,0.3,3.1,1c0.9,0.6,1.4,1.6,1.4,2.9v11.9c0,1.2-0.4,2.2-1.3,2.9
			c-0.9,0.7-1.9,1-3.2,1H52.4z M57.9,63.4V50.8c0-0.7-0.4-1-1.2-1v14.7C57.5,64.4,57.9,64.1,57.9,63.4z"/>
		<path class="st1" d="M74.9,67h-4.3l-0.7-5.3h-1.9L67.2,67h-4.3l3.2-19.7h5.5L74.9,67z M69.5,58.9l-0.6-5.9l-0.6,5.9H69.5z"/>
		<path class="st1" d="M95.7,67h-3.9V55.9L89.6,67h-3L84,55.9V67h-3.4V47.3h5.6l2,10.2l1.7-10.2h5.8V67z"/>
		<path class="st1" d="M108.3,67H104l-0.7-5.3h-1.9l-0.7,5.3h-4.3l3.2-19.7h5.5L108.3,67z M103,58.9l-0.6-5.9l-0.6,5.9H103z"/>
		<path class="st1" d="M109,67V47.3h5.4c1.2,0,2.2,0.3,3.1,1c0.9,0.6,1.4,1.6,1.4,2.9v11.9c0,1.2-0.4,2.2-1.3,2.9
			c-0.9,0.7-1.9,1-3.2,1H109z M114.5,63.4V50.8c0-0.7-0.4-1-1.2-1v14.7C114.1,64.4,114.5,64.1,114.5,63.4z"/>
		<path class="st1" d="M130.5,67h-4.3c-0.5-0.6-0.7-2.1-0.7-4.8v0l0-1.2c0-1.6,0-2.5,0-2.5c0-0.7-0.4-1-1.3-1V67h-4.3V47.3h5.3
			c1.2,0,2.3,0.3,3.2,0.8c0.9,0.6,1.4,1.4,1.4,2.7v2.4c0,1.5-0.9,2.6-2.7,3.1c1.8,0.4,2.7,1.5,2.7,3.3l-0.1,2.2
			C129.7,64.8,129.9,66.6,130.5,67z M125.5,54.1v-3.3c0-0.7-0.4-1-1.3-1v5.3C125.1,55.1,125.5,54.8,125.5,54.1z"/>
		<path class="st1" d="M135.3,67H131V47.3h4.3V67z"/>
		<path class="st1" d="M147.2,67h-4.5l-2.9-10.5V67h-3.6V47.3h4.9l2.5,9v-9h3.6V67z"/>
		<path class="st1" d="M158,67h-4.3v-9.5h-1.2V67h-4.3V47.3h4.3v7.9h1.2v-7.9h4.3V67z"/>
		<path class="st1" d="M170.5,67h-4.3l-0.7-5.3h-1.9l-0.7,5.3h-4.3l3.2-19.7h5.5L170.5,67z M165.2,58.9l-0.6-5.9l-0.6,5.9H165.2z"/>
	</g>
	<g>
		<path class="st1" d="M90.6,36.4v7.3h-4.2V23.9h4.6c1.8,0,3.1,0.2,4,0.7c0.9,0.5,1.3,1.4,1.3,2.8v5.5c0,1.3-0.4,2.2-1.1,2.7
			C94.5,36.1,92.9,36.4,90.6,36.4z M92,32.5v-4.7c0-0.7-0.5-1-1.4-1v6.8C91.6,33.5,92,33.2,92,32.5z"/>
		<path class="st1" d="M105.5,43.6H97V23.9h8.4v2.5h-4.1v5.3h3.7v2.4h-3.7v6.9h4.1V43.6z"/>
		<path class="st1" d="M115.3,26.5h-2.4v17.1h-4.3V26.5h-2.4v-2.6h9.2V26.5z"/>
	</g>
</g>
</svg>
