<?xml version="1.0" encoding="utf-8"?>
<!-- Generator: Adobe Illustrator 22.0.1, SVG Export Plug-In . SVG Version: 6.00 Build 0)  -->
<svg version="1.1" id="Camada_1" xmlns="http://www.w3.org/2000/svg" xmlns:xlink="http://www.w3.org/1999/xlink" x="0px" y="0px"
	 viewBox="0 0 50 50" style="enable-background:new 0 0 50 50;" xml:space="preserve">
<style type="text/css">
	.st0{fill:#78BAE6;}
	.st1{fill:#5E99BC;}
</style>
<g>
	<path class="st0" d="M25,0.8C11.2,0.8,0,12,0,25.8c0,10.7,6.7,19.8,16.2,23.4c1.3-6.9,2.4-11.9,0.4-13.3c-3.6-2.6-2.4-8-1.7-10.2
		c0.7-2.2,0.1-3.7,0.1-3.7c-2.2,7-5.2,6.3-5.2,6.3s0.1-5.3-1.1-7.3c-1.1-2-2.6-3.9-1.6-6.3c1-2.3,5.4-1.2,6.8-2.1
		c1.4-1,2.9-0.3,2.9-0.3c1.7-1.5,8.2-0.8,8.2-0.8s6.5-0.7,8.2,0.8c0,0,1.5-0.7,2.9,0.3c1.4,1,5.8-0.2,6.8,2.1c1,2.3-0.5,4.3-1.6,6.3
		c-1.1,2-1.1,7.3-1.1,7.3s-2.9,0.8-5.2-6.3c0,0-0.7,1.5,0.1,3.7c0.7,2.2,1.9,7.6-1.7,10.2c-2,1.4-0.9,6.3,0.4,13.3
		C43.3,45.6,50,36.5,50,25.8C50,12,38.8,0.8,25,0.8z"/>
	<path class="st1" d="M16.6,35.9c-0.6-0.4-1-0.9-1.4-1.5l-8.4,8.4c2.6,2.8,5.8,5,9.4,6.3C17.5,42.2,18.6,37.3,16.6,35.9z"/>
	<path class="st1" d="M50,25.8c0-7.2-3.1-13.7-7.9-18.3l-5.4,5.4c1.8,0.5,5.4-0.2,6.3,1.9c1,2.3-0.5,4.3-1.6,6.3
		c-1.1,2-1.1,7.3-1.1,7.3s-2.9,0.8-5.2-6.3c0,0-0.7,1.5,0.1,3.7c0.7,2.2,1.9,7.6-1.7,10.2c-2,1.4-0.9,6.3,0.4,13.3
		C43.3,45.6,50,36.5,50,25.8z"/>
</g>
</svg>
