<?xml version="1.0" encoding="utf-8"?>
<!-- Generator: Adobe Illustrator 22.0.1, SVG Export Plug-In . SVG Version: 6.00 Build 0)  -->
<svg version="1.1" id="Camada_1" xmlns="http://www.w3.org/2000/svg" xmlns:xlink="http://www.w3.org/1999/xlink" x="0px" y="0px"
	 viewBox="0 0 50 50" style="enable-background:new 0 0 50 50;" xml:space="preserve">
<style type="text/css">
	.st0{fill:#78BAE6;}
	.st1{fill:#5E99BC;}
</style>
<g>
	<path class="st0" d="M25,1.3c-13.8,0-24.9,11.2-24.9,25c0,9.8,5.7,18.4,14,22.4c2.8-6.4,1.7-11.1,1.7-11.1s-1.4-2.3-4.4-1.9
		l0.4-0.6L10.2,35l1.1-1.4h-1.1l0.9-1.1l-2.4-0.4l1-0.7l-0.8-0.8c0,0,2.1-0.6,1.9-3c-0.1-1.7-0.1-3.7,0.6-5.4
		c0.2-0.7-0.7-9.6,0-10.6c0.7-1.1,7.1,5.1,7.1,5.1s1.3-1.4,6.5-1.4s6.5,1.4,6.5,1.4s6.4-6.2,7.1-5.1c0.6,1-0.3,9.9,0,10.6
		c0.6,1.7,0.7,3.7,0.6,5.4c-0.1,2.4,1.9,3,1.9,3l-0.8,0.8l1,0.7l-2.4,0.4l0.9,1.1h-1.1l1.1,1.4l-1.6,0.1l0.4,0.6
		c-3-0.4-4.4,1.9-4.4,1.9s-1.1,4.7,1.7,11.1c8.3-4,14-12.6,14-22.4C49.9,12.5,38.8,1.3,25,1.3z"/>
	<path class="st1" d="M15.7,37.6c0,0,0-0.1-0.1-0.2l-7.3,7.3c1.7,1.6,3.7,2.9,5.8,3.9C16.8,42.3,15.7,37.6,15.7,37.6z"/>
	<path class="st1" d="M49.9,26.3c0-6.4-2.4-12.3-6.4-16.7l-4.6,4.6c0,3-0.4,7.5-0.2,7.9c0.6,1.7,0.7,3.7,0.6,5.4
		c-0.1,2.4,1.9,3,1.9,3l-0.8,0.8l1,0.7L39,32.4l0.9,1.1h-1.1l1.1,1.4L38.3,35l0.4,0.6c-3-0.4-4.4,1.9-4.4,1.9s-1.1,4.7,1.7,11.1
		C44.2,44.6,49.9,36.1,49.9,26.3z"/>
</g>
<g>
	<path class="st0" d="M-28.3,38.8c-13.8,0-25,11.2-25,25c0,10.7,4.6,18.8,14.1,22.4c1.3-6.9,4.5-10.9,2.5-12.3
		c-3.6-2.6-2.4-8-1.7-10.2c0.7-2.2,0.1-3.7,0.1-3.7c-2.2,7-5.2,6.3-5.2,6.3s0.1-5.3-1.1-7.3c-1.1-2-2.6-3.9-1.6-6.3
		c1-2.3,5.4-1.2,6.8-2.1c1.4-1,2.9-0.3,2.9-0.3c1.7-1.5,8.2-0.8,8.2-0.8s6.5-0.7,8.2,0.8c0,0,1.5-0.7,2.9,0.3s5.8-0.2,6.8,2.1
		S-10.9,57-12,59s-1.1,7.3-1.1,7.3s-2.9,0.8-5.2-6.3c0,0-0.7,1.5,0.1,3.7c0.7,2.2,1.9,7.6-1.7,10.2c-2,1.4,1.3,5.4,2.6,12.2
		c9.5-3.6,14-11.6,14-22.3C-3.3,50-14.5,38.8-28.3,38.8z"/>
	<path class="st1" d="M-36.7,73.9c-0.6-0.4-1-0.9-1.4-1.5l-8.8,8.9c2.6,2.8,4.6,3.4,7.7,4.9C-37.9,79.3-34.7,75.3-36.7,73.9z"/>
	<path class="st1" d="M-3.3,63.8c0-7.2-3.1-13.7-7.9-18.3l-5.4,5.4c1.8,0.5,5.4-0.2,6.3,1.9c1,2.3-0.5,4.3-1.6,6.3s-1.1,7.3-1.1,7.3
		s-2.9,0.8-5.2-6.3c0,0-0.7,1.5,0.1,3.7c0.7,2.2,1.9,7.6-1.7,10.2c-2,1.4,1.1,5.2,2.4,12.2C-8,82.5-3.3,74.5-3.3,63.8z"/>
</g>
<g>
	<polygon class="st0" points="-47.8,15.4 -48.5,15.4 -52.3,15.4 -52.3,19.2 -56.2,19.2 -56.2,23.1 -56.2,23.8 -52.3,23.8 
		-52.3,27.6 -47.8,27.6 -47.8,23.8 -44,23.8 -44,19.2 -47.8,19.2 	"/>
	<path class="st0" d="M-50.1-10.1c-13.7,0-24.8,11.2-24.8,24.9S-63.8,39.7-50,39.7c13.7,0,24.9-11.1,24.9-24.9
		C-25.2,1.1-36.3-10.1-50.1-10.1z M-49.2,2.6c0.6-2.9,3.1-4.9,5.6-4.3c2.5,0.5,4,3.3,3.4,6.2c-0.6,2.9-3.1,4.9-5.6,4.3
		C-48.3,8.3-49.8,5.5-49.2,2.6z M-56.5-1.7c2.5-0.5,5,1.4,5.6,4.3c0.6,2.9-0.9,5.7-3.4,6.2s-5-1.4-5.6-4.3
		C-60.5,1.6-59-1.2-56.5-1.7z M-68,13.1c-1.2-2.7-0.3-5.8,2.1-6.8c2.3-1,5.2,0.3,6.4,3.1c1.2,2.7,0.3,5.8-2.1,6.8
		C-63.9,17.2-66.8,15.9-68,13.1z M-42.1,31.4c-2.9,0-6.8-1.9-8-1.9c-1.1,0-5.1,1.9-8,1.9c-0.2,0-0.4,0-0.7,0h-0.1
		c-0.2,0-0.3,0-0.5-0.1h-0.1c-0.2,0-0.3-0.1-0.5-0.1c0,0,0,0-0.1,0c-0.2-0.1-0.4-0.1-0.5-0.2l0,0c-2.2-1-3.7-3.1-3.7-5.7
		c0-2.8,1.9-5.2,4.5-6c1.2-0.7,2.8-2.1,3.6-4.2c1.4-3.5,4-4.1,6-4.1c1.4,0,3.1,0.3,4.5,1.7c0.1,0.1,0.1,0.2,0.2,0.2l0.1,0.1
		c0.1,0.1,0.2,0.2,0.3,0.4l0.1,0.1c0.1,0.1,0.2,0.2,0.2,0.4c0,0,0,0.1,0.1,0.1c0.1,0.2,0.2,0.3,0.3,0.5c0,0,0,0.1,0.1,0.1
		c0.1,0.2,0.2,0.4,0.2,0.6c0.8,2.1,2.4,3.4,3.6,4.2c2.6,0.7,4.5,3.1,4.5,6C-35.9,28.6-38.6,31.4-42.1,31.4z M-38.5,16.2
		c-2.3-1-3.3-4.1-2.1-6.8s4.1-4.1,6.4-3.1c2.3,1,3.3,4.1,2.1,6.8C-33.3,15.9-36.2,17.2-38.5,16.2z"/>
	<path class="st1" d="M-32.2-2.6L-46.4,12c0.3,0.2,0.5,0.4,0.8,0.7c0.1,0.1,0.1,0.2,0.2,0.2l0.1,0.1c0.1,0.1,0.2,0.2,0.3,0.4
		l0.1,0.1c0.1,0.1,0.2,0.2,0.2,0.4c0,0,0,0.1,0.1,0.1c0.1,0.2,0.2,0.3,0.3,0.5c0,0,0,0.1,0.1,0.1c0.1,0.2,0.2,0.4,0.2,0.6
		c0.8,2.1,2.4,3.4,3.6,4.2c2.6,0.7,4.5,3.1,4.5,6c0,3.4-2.8,6.2-6.2,6.2c-2.9,0-6.8-1.9-8-1.9c-1.1,0-5.1,1.9-8,1.9
		c-0.2,0-0.4,0-0.7,0h-0.1c-0.2,0-0.3,0-0.5-0.1h-0.1c-0.2,0-0.3-0.1-0.5-0.1c0,0,0,0-0.1,0c-0.2-0.1-0.4-0.1-0.5-0.2l0,0
		c-0.9-0.4-1.7-1-2.4-1.8l-3.9,4C-62.5,37.5-56.5,40-50,40c13.7,0,24.9-11.1,24.9-24.9C-25.1,8-27.8,1.8-32.2-2.6z M-38.5,16.2
		c-2.3-1-3.3-4.1-2.1-6.8s4.1-4.1,6.4-3.1c2.3,1,3.3,4.1,2.1,6.8C-33.3,15.9-36.2,17.2-38.5,16.2z"/>
</g>
<g>
	<path class="st0" d="M78.2-32.2c-13.7,0-24.9,11.1-24.9,24.9s11.2,24.9,24.9,24.9c13.8,0,24.9-11.2,24.9-24.9
		C103.2-21.1,92-32.2,78.2-32.2z M79-18.5c0.6-2.7,2.9-4.5,5.2-4c2.3,0.5,3.7,3,3.2,5.7c-0.6,2.7-2.9,4.5-5.2,4
		C79.9-13.3,78.4-15.9,79-18.5z M72.3-22.5c2.3-0.5,4.6,1.3,5.2,4s-0.9,5.2-3.2,5.7c-2.3,0.5-4.6-1.3-5.2-4
		C68.6-19.5,70-22.1,72.3-22.5z M61.7-8.8c-1.1-2.5-0.3-5.3,1.9-6.3c2.2-0.9,4.8,0.3,5.9,2.8S69.8-7,67.6-6S62.8-6.3,61.7-8.8z
		 M85.6,8c-2.7,0-6.3-1.8-7.4-1.8S73.5,8,70.8,8c-3.2,0-5.7-2.6-5.7-5.7c0-2.6,1.8-4.8,4.2-5.5c1.1-0.7,2.6-1.9,3.4-3.8
		c1.3-3.2,3.7-3.8,5.6-3.8c1.9,0,4.3,0.6,5.6,3.8c0.8,1.9,2.3,3.2,3.4,3.8c2.4,0.7,4.2,2.9,4.2,5.5C91.3,5.5,88.8,8,85.6,8z
		 M94.8-8.8C93.7-6.3,91.1-5,88.9-6c-2.2-0.9-3-3.7-1.9-6.3c1.1-2.5,3.7-3.8,5.9-2.8C95-14.1,95.9-11.3,94.8-8.8z"/>
	<path class="st1" d="M103.2-7.3c0-6.8-2.8-13-7.2-17.5l-8.9,8.9c-0.6,1.5-1.7,2.6-3.1,3.1l-2.7,2.6c1,0.6,1.9,1.5,2.5,3.1
		c0.8,1.9,2.3,3.2,3.4,3.8c2.4,0.7,4.2,2.9,4.2,5.5c0,3.2-2.6,5.7-5.7,5.7c-2.7,0-6.3-1.8-7.4-1.8c-1.1,0-4.7,1.8-7.4,1.8
		c-2.1,0-3.9-1.1-4.9-2.8l-5.2,5.2c4.5,4.5,10.7,7.2,17.5,7.2C92,17.6,103.2,6.5,103.2-7.3z M88.9-6c-2.2-0.9-3-3.7-1.9-6.3
		c1.1-2.5,3.7-3.8,5.9-2.8c2.2,0.9,3,3.7,1.9,6.3C93.7-6.3,91-5,88.9-6z"/>
</g>
</svg>
