<?xml version="1.0" encoding="utf-8"?>
<!-- Generator: Adobe Illustrator 22.0.1, SVG Export Plug-In . SVG Version: 6.00 Build 0)  -->
<svg version="1.1" id="Camada_1" xmlns="http://www.w3.org/2000/svg" xmlns:xlink="http://www.w3.org/1999/xlink" x="0px" y="0px"
	 viewBox="0 0 50 50" style="enable-background:new 0 0 50 50;" xml:space="preserve">
<style type="text/css">
	.st0{fill:#4E515A;}
	.st1{fill-rule:evenodd;clip-rule:evenodd;fill:#434750;}
</style>
<g>
	<g>
		<path class="st0" d="M24.9,1.4C38,1.4,48.6,12,48.6,25.1c0,13.1-10.6,23.7-23.7,23.7c-13.1,0-23.7-10.6-23.7-23.7
			C1.2,12,11.8,1.4,24.9,1.4 M24.9,0.1C11.2,0.1,0,11.3,0,25.1S11.2,50,24.9,50c13.7,0,24.9-11.2,24.9-24.9S38.7,0.1,24.9,0.1
			L24.9,0.1z"/>
	</g>
	<g>
		<path class="st1" d="M10.6,34.7c2.3,0.1,4.4-0.2,6.5-1.1c0.9-0.4,1.8-0.9,2.6-1.6c-1,0-1.9-0.3-2.7-0.7c-1.4-0.7-2.4-1.8-3-3.3
			c-0.1-0.3-0.1-0.3,0.2-0.3c1,0.1,1.7,0.1,2.3-0.1c-0.5-0.2-1-0.3-1.5-0.6c-2.1-1.1-3.2-2.9-3.4-5.3c0-0.3,0.1-0.3,0.3-0.2
			c0.7,0.4,1.5,0.6,2.4,0.7c-0.4-0.4-0.7-0.6-1-1c-1.7-1.9-2.1-4.8-1-7.1c0.2-0.3,0.2-0.3,0.4-0.1c2.9,3.3,6.5,5.4,10.9,6.1
			c0.4,0.1,0.9,0.1,1.4,0.2c0.3,0,0.3-0.1,0.3-0.3c-0.5-2.6,0.8-5.2,3.1-6.5c2.4-1.4,5.4-1,7.3,0.9c0.2,0.2,0.4,0.2,0.7,0.2
			c1.2-0.3,2.3-0.7,3.3-1.3c0.1,0,0.2-0.1,0.3-0.2c-0.4,1.5-1.3,2.6-2.6,3.4c1.2-0.1,2.3-0.5,3.4-0.9c0,0.1-0.1,0.2-0.2,0.4
			c-0.7,1-1.6,1.9-2.6,2.6c-0.2,0.1-0.2,0.3-0.2,0.5c0.1,4.6-1.4,8.6-4.3,12.2c-2.7,3.2-6.2,5.2-10.4,5.8c-4.4,0.7-8.6,0-12.4-2.4
			C10.7,34.8,10.6,34.7,10.6,34.7z"/>
	</g>
</g>
</svg>
