<?xml version="1.0" encoding="utf-8"?>
<!-- Generator: Adobe Illustrator 22.0.1, SVG Export Plug-In . SVG Version: 6.00 Build 0)  -->
<svg version="1.1" id="Camada_1" xmlns="http://www.w3.org/2000/svg" xmlns:xlink="http://www.w3.org/1999/xlink" x="0px" y="0px"
	 viewBox="0 0 50 50" style="enable-background:new 0 0 50 50;" xml:space="preserve">
<style type="text/css">
	.st0{fill:#4E515A;}
	.st1{fill-rule:evenodd;clip-rule:evenodd;fill:#434750;}
</style>
<g>
	<g>
		<path class="st0" d="M25.2,1.2c13,0,23.5,10.5,23.5,23.5S38.2,48.3,25.2,48.3c-13,0-23.5-10.5-23.5-23.5S12.2,1.2,25.2,1.2
			 M25.2,0C11.6,0,0.5,11.1,0.5,24.8c0,13.6,11.1,24.7,24.7,24.7C38.9,49.5,50,38.4,50,24.8C50,11.1,38.9,0,25.2,0L25.2,0z"/>
	</g>
	<g>
		<path class="st1" d="M39.2,21.4c-1.6-6.5-7.2-11-14-11c-0.9,0-1.9,0.1-2.7,0.3C13,12.5,8.1,23,12.7,31.5c0.2,0.2,0.2,0.5,0.1,0.7
			c-0.7,2.2-1.3,4.4-1.9,6.7c-0.1,0.4-0.1,0.4,0.3,0.3c2.3-0.6,4.6-1.2,6.9-1.8c0.2-0.1,0.3-0.1,0.5,0c3,1.5,6.1,1.9,9.4,1.3
			C35.9,37.1,41.1,29.1,39.2,21.4z M27.2,36.4c-0.7,0.1-1.3,0.2-1.7,0.1c-2.5,0-4.6-0.6-6.5-1.7c-0.3-0.2-0.5-0.2-0.7-0.1
			c-1.3,0.3-2.6,0.7-3.8,1c-0.3,0.1-0.3,0-0.2-0.2c0.3-1.2,0.7-2.4,1-3.6c0.1-0.3,0.1-0.6-0.1-0.8c-2.6-4.2-2.5-9.4,0.4-13.4
			c3-4,7.2-5.7,12.1-4.7c4.9,1,8,4.2,9.1,9C38.4,28.7,33.9,35.3,27.2,36.4z"/>
		<path class="st1" d="M29,31.5c-0.5,0.1-1,0-1.5-0.2c-3.3-1-5.8-3-7.7-5.7c-0.7-1-1.4-2.1-1.7-3.4c-0.3-1.5,0.2-2.8,1.3-3.8
			c0.4-0.4,1.5-0.5,1.9-0.3c0.1,0.1,0.2,0.2,0.3,0.4c0.4,1,0.8,2,1.3,2.9c0.1,0.2,0,0.4-0.1,0.6c-0.2,0.5-0.6,0.8-0.9,1.2
			c-0.3,0.2-0.3,0.5-0.1,0.8c1.2,2,2.8,3.4,4.9,4.2c0.3,0.1,0.5,0.1,0.7-0.2c0.4-0.4,0.7-0.9,1.1-1.3c0.2-0.3,0.5-0.3,0.8-0.2
			c0.7,0.3,1.4,0.6,2.1,0.9c0.2,0.1,0.3,0.2,0.5,0.2c0.7,0.4,0.7,0.4,0.6,1.2c-0.1,1.5-1.2,2.2-2.6,2.6C29.6,31.5,29.3,31.5,29,31.5
			z"/>
	</g>
</g>
</svg>
