<?xml version="1.0" encoding="utf-8"?>
<!-- Generator: Adobe Illustrator 22.0.1, SVG Export Plug-In . SVG Version: 6.00 Build 0)  -->
<svg version="1.1" id="Camada_1" xmlns="http://www.w3.org/2000/svg" xmlns:xlink="http://www.w3.org/1999/xlink" x="0px" y="0px"
	 viewBox="0 0 50 50" style="enable-background:new 0 0 50 50;" xml:space="preserve">
<style type="text/css">
	.st0{fill:url(#SVGID_1_);}
	.st1{fill-rule:evenodd;clip-rule:evenodd;fill:#FFFFFF;}
</style>
<g>
	<linearGradient id="SVGID_1_" gradientUnits="userSpaceOnUse" x1="24.4813" y1="-19.8792" x2="25.3915" y2="58.3956">
		<stop  offset="0.1322" style="stop-color:#6FA73B"/>
		<stop  offset="0.794" style="stop-color:#55903B"/>
	</linearGradient>
	<path class="st0" d="M50,25c0,13.8-11.2,25-25,25C11.2,50,0,38.8,0,25C0,11.2,11.2,0,25,0C38.8,0,50,11.2,50,25z"/>
	<g>
		<path class="st1" d="M39.8,21.4C38.2,14.5,32.2,9.8,25,9.7c-0.9,0-2,0.1-2.9,0.3C12,12,6.8,23.1,11.7,32.1
			c0.2,0.2,0.2,0.5,0.1,0.7c-0.7,2.3-1.4,4.7-2,7.1c-0.1,0.4-0.1,0.4,0.3,0.3c2.5-0.7,4.9-1.3,7.4-1.9c0.2-0.1,0.4-0.1,0.5,0
			c3.2,1.6,6.5,2,10,1.4C36.3,38.2,41.8,29.7,39.8,21.4z M27.1,37.3c-0.7,0.1-1.4,0.2-1.8,0.2c-2.7,0-4.8-0.6-6.9-1.7
			c-0.3-0.2-0.5-0.2-0.8-0.1c-1.4,0.3-2.7,0.7-4.1,1c-0.3,0.1-0.3,0-0.2-0.2c0.4-1.3,0.7-2.5,1.1-3.8c0.1-0.3,0.1-0.6-0.2-0.9
			c-2.8-4.5-2.6-10,0.4-14.2c3.2-4.3,7.6-6.1,12.9-5c5.2,1.1,8.5,4.5,9.7,9.6C39,29.2,34.2,36.2,27.1,37.3z"/>
		<path class="st1" d="M29,32.1c-0.5,0-1.1-0.1-1.6-0.2c-3.5-1-6.1-3.1-8.2-6c-0.8-1.1-1.5-2.2-1.8-3.6c-0.3-1.6,0.2-3,1.4-4.1
			c0.4-0.4,1.6-0.5,2-0.3c0.2,0.1,0.2,0.3,0.3,0.4c0.4,1.1,0.9,2.1,1.3,3.1c0.1,0.2,0.1,0.4-0.1,0.6c-0.2,0.5-0.6,0.9-0.9,1.2
			c-0.3,0.3-0.3,0.5-0.1,0.8c1.2,2.1,2.9,3.6,5.2,4.5c0.3,0.1,0.6,0.1,0.8-0.2c0.4-0.4,0.8-0.9,1.1-1.4c0.2-0.3,0.5-0.3,0.8-0.2
			c0.7,0.3,1.5,0.7,2.2,1c0.2,0.1,0.3,0.2,0.5,0.2c0.8,0.4,0.8,0.4,0.7,1.2c-0.1,1.6-1.3,2.4-2.7,2.8C29.6,32.2,29.3,32.2,29,32.1z"
			/>
	</g>
</g>
</svg>
